PathFileType	4	(X/Y/Z)	/Users/itak/Documents/Research/Walk-IL/dataset/trc/00136_00007.trc
DataRate	CameraRate	NumFrames	NumMarkers	Units	OrigDataRate	OrigDataStartFrame	OrigNumFrames
100.000000	100.000000	4	53	mm	100.000000	0	740
Frame#	Time	RPSI			LPSI			L3			STRN			T10			C7			CLAV			RBAK			LBAK			LSHO			LUPA			LAEL			LAOL			LWTS			LWPS			LFRA			LIFD			LHPS			LHTS			RSHO			RUPA			RAEL			RAOL			RWTS			RWPS			RFRA			RIFD			RHTS			RHPS			RBHD			LFHD			RFHD			LBHD			LHIP			RHIP			RASI			LASI			LKNE			LTHI			LANK			LTIP			LTOE			LMT1			LMT5			LHEE			RKNE			RTHI			RANK			RTIP			RTOE			RMT1			RMT5			RHEE			
		X1	Y1	Z1	X2	Y2	Z2	X3	Y3	Z3	X4	Y4	Z4	X5	Y5	Z5	X6	Y6	Z6	X7	Y7	Z7	X8	Y8	Z8	X9	Y9	Z9	X10	Y10	Z10	X11	Y11	Z11	X12	Y12	Z12	X13	Y13	Z13	X14	Y14	Z14	X15	Y15	Z15	X16	Y16	Z16	X17	Y17	Z17	X18	Y18	Z18	X19	Y19	Z19	X20	Y20	Z20	X21	Y21	Z21	X22	Y22	Z22	X23	Y23	Z23	X24	Y24	Z24	X25	Y25	Z25	X26	Y26	Z26	X27	Y27	Z27	X28	Y28	Z28	X29	Y29	Z29	X30	Y30	Z30	X31	Y31	Z31	X32	Y32	Z32	X33	Y33	Z33	X34	Y34	Z34	X35	Y35	Z35	X36	Y36	Z36	X37	Y37	Z37	X38	Y38	Z38	X39	Y39	Z39	X40	Y40	Z40	X41	Y41	Z41	X42	Y42	Z42	X43	Y43	Z43	X44	Y44	Z44	X45	Y45	Z45	X46	Y46	Z46	X47	Y47	Z47	X48	Y48	Z48	X49	Y49	Z49	X50	Y50	Z50	X51	Y51	Z51	X52	Y52	Z52	X53	Y53	Z53	

1	0	363.2199401855469	1130.779541015625	1152.384399414062	352.5356140136719	1133.06640625	1286.53466796875	365.1753234863281	1162.262329101562	1221.61767578125	162.4437561035156	1367.2353515625	1203.4794921875	412.3841247558594	1307.455078125	1227.166381835938	393.3819580078125	1599.987670898438	1237.086547851562	206.9773712158203	1499.601806640625	1209.794555664062	445.3314208984375	1412.02734375	1157.711181640625	387.6942443847656	1580.243530273438	1338.958374023438	293.8217163085938	1571.577026367188	1397.777099609375	300.6634826660156	1439.785034179688	1470.0712890625	274.1727294921875	1219.8671875	1484.673217773438	346.6533203125	1206.743896484375	1436.006469726562	183.6219482421875	959.5446166992188	1424.2099609375	259.9275512695312	936.7071533203125	1463.701538085938	256.1129760742188	1103.438232421875	1484.736938476562	148.6416015625	790.9566650390625	1413.095581054688	233.9914398193359	860.3982543945312	1459.2158203125	169.4085540771484	868.3497314453125	1431.385986328125	357.8309936523438	1580.254272460938	1050.802978515625	380.1966552734375	1505.223388671875	990.8229370117188	381.7972106933594	1210.12841796875	974.9041137695312	378.27880859375	1210.8828125	1071.363891601562	226.2364044189453	974.53125	977.1273803710938	303.7073364257812	953.3838500976562	954.0988159179688	357.0282592773438	1137.739501953125	958.1497192382812	193.638671875	781.2769775390625	997.5665283203125	193.0484313964844	865.9614868164062	969.6343383789062	263.4255065917969	855.0595703125	948.0253295898438	357.9680786132812	1782.91259765625	1152.724609375	172.3935089111328	1837.87109375	1259.530639648438	189.7030487060547	1839.598999023438	1131.677612304688	346.5509033203125	1786.18505859375	1287.722900390625	253.9921112060547	1044.602294921875	1383.48779296875	245.3055877685547	1033.641723632812	1024.487182617188	160.8925628662109	1108.9765625	1070.249633789062	147.9142150878906	1109.794067382812	1337.254028320312	243.0203704833984	542.5775756835938	1347.989501953125	259.1954650878906	691.2198486328125	1379.210205078125	361.2156677246094	43.10135269165039	1338.315673828125	344.0583801269531	296.198486328125	1376.807983398438	134.6102905273438	42.39548492431641	1259.424682617188	218.5854187011719	45.66595458984375	1233.755493164062	233.9122009277344	40.63247299194336	1351.82177734375	434.8134460449219	44.40846252441406	1282.215942382812	265.8163757324219	541.7211303710938	1071.588745117188	236.5247039794922	821.1214599609375	1034.281982421875	378.5895690917969	34.31227493286133	1106.594604492188	296.8952026367188	409.9450988769531	1065.599731445312	146.0540466308594	47.9936408996582	1156.583618164062	205.9571380615234	36.78293991088867	1200.825073242188	244.6795959472656	44.41695022583008	1085.954345703125	435.7207946777344	35.28712844848633	1155.839477539062	
2	0.01	363.0379638671875	1130.768798828125	1152.333129882812	352.4369812011719	1133.056396484375	1286.476806640625	365.0537414550781	1162.264404296875	1221.557739257812	162.3141937255859	1367.217163085938	1203.529907226562	412.27392578125	1307.420288085938	1227.071533203125	393.3183288574219	1599.959350585938	1237.022583007812	206.8985443115234	1499.598022460938	1209.84912109375	445.1961975097656	1411.987060546875	1157.628295898438	387.68896484375	1580.208129882812	1338.891723632812	293.8668823242188	1571.555297851562	1397.7880859375	300.9695129394531	1439.740478515625	1470.06201171875	274.748046875	1219.877319335938	1484.654663085938	347.0373229980469	1206.718627929688	1435.803100585938	184.3502349853516	959.3980102539062	1424.615478515625	260.903076171875	936.6824951171875	1463.744995117188	256.8419189453125	1103.362548828125	1484.876708984375	149.6221313476562	790.8499755859375	1413.372314453125	234.9643707275391	860.2953491210938	1459.454467773438	170.2702331542969	868.2006225585938	1431.87353515625	357.6740417480469	1580.23046875	1050.776123046875	380.041015625	1505.214233398438	990.7979736328125	381.7939147949219	1210.1298828125	974.8654174804688	378.2027587890625	1210.879272460938	1071.331665039062	226.3628082275391	974.2739868164062	976.8788452148438	303.7600708007812	953.36376953125	954.0147705078125	357.0509033203125	1137.734619140625	958.0841064453125	193.6265258789062	781.2518920898438	997.3646240234375	193.0458221435547	865.9442749023438	969.455322265625	263.4828491210938	855.0365600585938	947.90087890625	357.7490844726562	1782.9169921875	1152.648193359375	172.2068176269531	1837.791259765625	1259.556396484375	189.4541320800781	1839.494750976562	1131.701293945312	346.4015502929688	1786.20849609375	1287.688232421875	254.1290893554688	1044.588134765625	1383.415771484375	245.0971527099609	1033.621704101562	1024.544067382812	160.70556640625	1108.986083984375	1070.257202148438	147.8300628662109	1109.819091796875	1337.2705078125	242.9194793701172	542.566650390625	1347.975708007812	259.1191101074219	691.2407836914062	1379.20849609375	361.2229919433594	43.11304092407227	1338.303466796875	344.040771484375	296.1953735351562	1376.79443359375	134.6107788085938	42.39836120605469	1259.424072265625	218.5759429931641	45.66590118408203	1233.750854492188	233.9205780029297	40.62665557861328	1351.80615234375	434.8136291503906	44.40536499023438	1282.205322265625	265.8128967285156	541.7025756835938	1071.56103515625	236.3362884521484	821.0971069335938	1034.31103515625	378.5954895019531	34.30885696411133	1106.587646484375	296.8931579589844	409.9344482421875	1065.556884765625	146.0531768798828	47.99531936645508	1156.573120117188	205.9570922851562	36.78683090209961	1200.827026367188	244.6875915527344	44.4137077331543	1085.943481445312	435.7179565429688	35.27885437011719	1155.82958984375	
3	0.02	362.8024597167969	1130.754272460938	1152.26513671875	352.3041076660156	1133.042236328125	1286.402709960938	364.8949584960938	1162.26220703125	1221.477416992188	162.1402587890625	1367.1962890625	1203.596435546875	412.1414794921875	1307.377685546875	1226.947143554688	393.2355041503906	1599.923461914062	1236.942993164062	206.8138427734375	1499.592163085938	1209.932861328125	445.0323791503906	1411.937622070312	1157.523193359375	387.6799926757812	1580.163818359375	1338.806274414062	293.927734375	1571.52587890625	1397.804321289062	301.3482666015625	1439.685913085938	1470.051147460938	275.4564514160156	1219.890502929688	1484.652709960938	347.5322875976562	1206.69873046875	1435.553955078125	185.2147369384766	959.2257080078125	1425.127685546875	262.0657043457031	936.6492919921875	1463.8037109375	257.7366333007812	1103.271850585938	1485.046142578125	150.7830810546875	790.70654296875	1413.706298828125	236.1245422363281	860.1773681640625	1459.743530273438	171.2926788330078	868.0288696289062	1432.47216796875	357.4748229980469	1580.199829101562	1050.7392578125	379.8414001464844	1505.201049804688	990.762451171875	381.7794494628906	1210.132446289062	974.8079833984375	378.1073303222656	1210.874145507812	1071.280517578125	226.4954071044922	973.992431640625	976.5956420898438	303.816162109375	953.3369140625	953.90283203125	357.0621948242188	1137.72802734375	957.9947509765625	193.6283416748047	781.2174072265625	997.1278076171875	193.0409698486328	865.9138793945312	969.2505493164062	263.5412292480469	855.0045166015625	947.7454833984375	357.4759521484375	1782.91845703125	1152.551635742188	171.9868621826172	1837.698364257812	1259.587280273438	189.1425933837891	1839.371826171875	1131.721313476562	346.2184753417969	1786.236206054688	1287.638916015625	254.2612457275391	1044.57177734375	1383.346435546875	244.8161773681641	1033.595092773438	1024.602416992188	160.45947265625	1108.990112304688	1070.270263671875	147.7317047119141	1109.848266601562	1337.296997070312	242.7934417724609	542.551025390625	1347.960815429688	259.0223083496094	691.2628173828125	1379.210205078125	361.2313537597656	43.12740707397461	1338.288452148438	344.0164794921875	296.1893615722656	1376.774291992188	134.6113128662109	42.40110397338867	1259.424682617188	218.5662689208984	45.66571807861328	1233.746459960938	233.9293670654297	40.62127304077148	1351.78857421875	434.8117370605469	44.40095520019531	1282.192016601562	265.8084411621094	541.6796264648438	1071.526000976562	236.0906982421875	821.0648803710938	1034.348022460938	378.6004943847656	34.3021125793457	1106.577026367188	296.8918151855469	409.9201049804688	1065.50390625	146.05224609375	47.99718856811523	1156.562133789062	205.9567108154297	36.79191589355469	1200.829223632812	244.6978912353516	44.40863800048828	1085.931640625	435.7143249511719	35.26847457885742	1155.81591796875	
4	0.03	362.5209655761719	1130.736572265625	1152.180908203125	352.1378784179688	1133.023193359375	1286.315063476562	364.7017517089844	1162.253784179688	1221.3779296875	161.9244689941406	1367.174560546875	1203.677368164062	411.9957580566406	1307.329345703125	1226.79638671875	393.1351623535156	1599.881103515625	1236.850708007812	206.7341918945312	1499.583984375	1210.05126953125	444.8486328125	1411.8818359375	1157.399291992188	387.6664428710938	1580.112670898438	1338.70458984375	294.0025634765625	1571.48876953125	1397.8251953125	301.7775268554688	1439.624633789062	1470.040405273438	276.260498046875	1219.904174804688	1484.678344726562	348.1167297363281	1206.688842773438	1435.274047851562	186.1533050537109	959.0424194335938	1425.723022460938	263.3330078125	936.6096801757812	1463.880004882812	258.7510375976562	1103.17333984375	1485.2373046875	152.0431060791016	790.5347290039062	1414.075439453125	237.3921813964844	860.0534057617188	1460.06494140625	172.4006195068359	867.8511352539062	1433.153076171875	357.2398986816406	1580.163696289062	1050.692138671875	379.6032409667969	1505.18408203125	990.7154541015625	381.7481384277344	1210.135986328125	974.730224609375	377.9957580566406	1210.86767578125	1071.20751953125	226.6173553466797	973.7154541015625	976.3024291992188	303.8680725097656	953.3042602539062	953.7647705078125	357.0531616210938	1137.7197265625	957.8828735351562	193.64990234375	781.1728515625	996.8750610351562	193.0354461669922	865.8668212890625	969.0363159179688	263.5936889648438	854.9638061523438	947.5669555664062	357.1633605957031	1782.914428710938	1152.439575195312	171.7495727539062	1837.600341796875	1259.620849609375	188.7833862304688	1839.239135742188	1131.732666015625	346.0126647949219	1786.26611328125	1287.57470703125	254.359375	1044.554809570312	1383.294799804688	244.4696197509766	1033.561767578125	1024.65478515625	160.1591186523438	1108.98486328125	1070.291137695312	147.6257781982422	1109.878784179688	1337.335693359375	242.6471557617188	542.5309448242188	1347.945434570312	258.90771484375	691.2832641601562	1379.216430664062	361.2398376464844	43.14363479614258	1338.271484375	343.9850463867188	296.179443359375	1376.74658203125	134.6117248535156	42.40324783325195	1259.427124023438	218.5572052001953	45.66525268554688	1233.742309570312	233.9378662109375	40.61746978759766	1351.769897460938	434.8071899414062	44.39564514160156	1282.176513671875	265.8014831542969	541.6526489257812	1071.485107421875	235.7870483398438	821.0243530273438	1034.392700195312	378.6039733886719	34.2910270690918	1106.563110351562	296.8910827636719	409.9024353027344	1065.442993164062	146.05126953125	47.99933624267578	1156.552124023438	205.9559936523438	36.79795837402344	1200.831665039062	244.7091674804688	44.40223693847656	1085.919555664062	435.7103881835938	35.25674057006836	1155.79931640625	
